# xmcd
#
# Track frame offsets:
#	150
#	14426
#	28810
#	49188
#	68167
#	82885
#	99018
#	112411
#	131379
#	146348
#	157165
#	176045
#	188905
#	218128
#	244312
#
# Disc length: 3491 seconds
#
# Revision: 0
# Processed by: cddbd v1.5.1PL2 Copyright (c) Steve Scherf et al.
# Submitted via: dBpowerAMP V4.0
#
DISCID=d30da10f
DTITLE=Dan Stevens - Road to Memphis (Live )
DYEAR=2005
DGENRE=Blues
TTITLE0=Trouble in Mind
TTITLE1=Sleepin' Alone
TTITLE2=Drinkin' Muddy Water
TTITLE3=Spoonful
TTITLE4=Depot Blues
TTITLE5=Come Back Baby
TTITLE6=Oh Glory
TTITLE7=Ramblin'
TTITLE8=Hesitation Blues
TTITLE9=Shake Your Lovin'
TTITLE10=Broke Down and Hungry
TTITLE11=Down in the Alley
TTITLE12=It Hurts Me Too
TTITLE13=That's Alright
TTITLE14=Can't Make Me Blue
EXTD=2005.Dan Stevens/CD Baby 
EXTT0=
EXTT1=
EXTT2=
EXTT3=
EXTT4=
EXTT5=
EXTT6=
EXTT7=
EXTT8=
EXTT9=
EXTT10=
EXTT11=
EXTT12=
EXTT13=
EXTT14=
PLAYORDER=
